<?xml version="1.0" encoding="UTF-8" standalone="no"?>
<svg
   version="1.1"
   width="1000"
   height="1000"
   viewBox="0 0 1000 1000"
   id="svg93"
   sodipodi:docname="logo-subtitle.svg"
   inkscape:export-filename="C:\Users\steff\Desktop\logo-subtitle.png"
   inkscape:export-xdpi="172.8"
   inkscape:export-ydpi="172.8"
   inkscape:version="1.1 (c68e22c387, 2021-05-23)"
   xmlns:inkscape="http://www.inkscape.org/namespaces/inkscape"
   xmlns:sodipodi="http://sodipodi.sourceforge.net/DTD/sodipodi-0.dtd"
   xmlns="http://www.w3.org/2000/svg"
   xmlns:svg="http://www.w3.org/2000/svg">
  <defs
     id="defs97" />
  <sodipodi:namedview
     id="namedview95"
     pagecolor="#ffffff"
     bordercolor="#666666"
     borderopacity="1.0"
     inkscape:pageshadow="2"
     inkscape:pageopacity="0.0"
     inkscape:pagecheckerboard="0"
     showgrid="false"
     inkscape:zoom="0.832"
     inkscape:cx="500.60096"
     inkscape:cy="500.60096"
     inkscape:window-width="1920"
     inkscape:window-height="1017"
     inkscape:window-x="-8"
     inkscape:window-y="-8"
     inkscape:window-maximized="1"
     inkscape:current-layer="svg93" />
  <g
     transform="matrix(0.7,0,0,0.7,149.58628807731054,252.0509311740891)"
     id="g91">
    <svg
       viewBox="0 0 348 247"
       data-background-color="#62bfd0"
       preserveAspectRatio="xMidYMid meet"
       height="709"
       width="1000"
       version="1.1"
       id="svg89">
      <g
         id="tight-bounds"
         transform="matrix(1,0,0,1,0.2056740532341621,-0.09999999999999432)">
        <svg
           viewBox="0 0 347.5886424721545 247.2"
           height="247.2"
           width="347.5886424721545"
           version="1.1"
           id="svg84">
          <g
             id="g80">
            <svg
               viewBox="0 0 347.5886424721545 247.2"
               height="247.2"
               width="347.5886424721545"
               version="1.1"
               id="svg78">
              <g
                 id="g76">
                <svg
                   viewBox="0 0 395.52 281.2880861256351"
                   height="247.2"
                   width="347.5886424721545"
                   version="1.1"
                   id="svg74">
                  <g
                     transform="matrix(1,0,0,1,0,169.9606339098348)"
                     id="g28">
                    <svg
                       viewBox="0 0 395.52 111.32745221580029"
                       height="111.32745221580029"
                       width="395.52"
                       version="1.1"
                       id="svg26">
                      <g
                         id="g24">
                        <svg
                           viewBox="0 0 395.52 111.32745221580029"
                           height="111.32745221580029"
                           width="395.52"
                           version="1.1"
                           id="svg22">
                          <g
                             id="g11">
                            <svg
                               viewBox="0 0 395.52 68.22419452887539"
                               height="68.22419452887539"
                               width="395.52"
                               version="1.1"
                               id="svg9">
                              <g
                                 transform="matrix(1,0,0,1,0,0)"
                                 id="g7">
                                <svg
                                   width="395.52"
                                   viewBox="1.9000000953674316 -35.29999923706055 263.17999267578125 45.400001525878906"
                                   height="68.22419452887539"
                                   data-palette-color="#ffffff"
                                   version="1.1"
                                   id="svg5">
                                <path
                                   d="M13.7 0.6L13.7 0.6Q10.4 0.6 7.33-0.65 4.25-1.9 1.9-4.2L1.9-4.2 5.3-8.15Q7.05-6.5 9.3-5.48 11.55-4.45 13.8-4.45L13.8-4.45Q16.6-4.45 18.05-5.6 19.5-6.75 19.5-8.65L19.5-8.65Q19.5-9.65 19.13-10.35 18.75-11.05 18.07-11.58 17.4-12.1 16.48-12.55 15.55-13 14.45-13.45L14.45-13.45 9.95-15.4Q8.75-15.9 7.58-16.65 6.4-17.4 5.45-18.45 4.5-19.5 3.93-20.9 3.35-22.3 3.35-24.1L3.35-24.1Q3.35-26.05 4.17-27.73 5-29.4 6.45-30.65 7.9-31.9 9.93-32.6 11.95-33.3 14.35-33.3L14.35-33.3Q17.2-33.3 19.85-32.18 22.5-31.05 24.4-29.15L24.4-29.15 21.45-25.45Q19.85-26.75 18.15-27.5 16.45-28.25 14.35-28.25L14.35-28.25Q12-28.25 10.6-27.23 9.2-26.2 9.2-24.4L9.2-24.4Q9.2-23.45 9.63-22.78 10.05-22.1 10.78-21.58 11.5-21.05 12.45-20.63 13.4-20.2 14.4-19.8L14.4-19.8 18.85-17.95Q20.3-17.35 21.5-16.55 22.7-15.75 23.58-14.7 24.45-13.65 24.95-12.28 25.45-10.9 25.45-9.1L25.45-9.1Q25.45-7.1 24.65-5.35 23.85-3.6 22.33-2.27 20.8-0.95 18.63-0.18 16.45 0.6 13.7 0.6ZM36.65 9.7L30.9 9.7 30.9-24.55 35.65-24.55 36.05-21.95 36.25-21.95Q37.8-23.25 39.7-24.2 41.6-25.15 43.65-25.15L43.65-25.15Q45.95-25.15 47.72-24.28 49.5-23.4 50.75-21.75 52-20.1 52.65-17.8 53.3-15.5 53.3-12.65L53.3-12.65Q53.3-9.5 52.42-7.03 51.55-4.55 50.1-2.88 48.65-1.2 46.75-0.3 44.85 0.6 42.8 0.6L42.8 0.6Q41.2 0.6 39.6-0.1 38-0.8 36.5-2.1L36.5-2.1 36.65 2 36.65 9.7ZM41.6-4.15L41.6-4.15Q44.05-4.15 45.7-6.28 47.35-8.4 47.35-12.6L47.35-12.6Q47.35-16.3 46.1-18.35 44.85-20.4 42.05-20.4L42.05-20.4Q39.45-20.4 36.65-17.65L36.65-17.65 36.65-6.2Q38-5.05 39.25-4.6 40.5-4.15 41.6-4.15ZM69.6 0.6L69.6 0.6Q67.05 0.6 64.85-0.28 62.65-1.15 61-2.8 59.35-4.45 58.42-6.83 57.5-9.2 57.5-12.25L57.5-12.25Q57.5-15.25 58.45-17.65 59.4-20.05 60.97-21.7 62.55-23.35 64.6-24.25 66.65-25.15 68.8-25.15L68.8-25.15Q71.3-25.15 73.2-24.3 75.1-23.45 76.37-21.9 77.65-20.35 78.3-18.2 78.95-16.05 78.95-13.5L78.95-13.5Q78.95-12.65 78.87-11.9 78.8-11.15 78.7-10.7L78.7-10.7 63.1-10.7Q63.5-7.4 65.42-5.63 67.35-3.85 70.35-3.85L70.35-3.85Q71.95-3.85 73.32-4.33 74.7-4.8 76.05-5.65L76.05-5.65 78-2.05Q76.25-0.9 74.1-0.15 71.95 0.6 69.6 0.6ZM63.05-14.6L63.05-14.6 73.95-14.6Q73.95-17.45 72.72-19.07 71.5-20.7 68.95-20.7L68.95-20.7Q66.75-20.7 65.1-19.15 63.45-17.6 63.05-14.6ZM94.94 0.6L94.94 0.6Q92.39 0.6 90.19-0.28 87.99-1.15 86.34-2.8 84.69-4.45 83.77-6.83 82.84-9.2 82.84-12.25L82.84-12.25Q82.84-15.25 83.79-17.65 84.74-20.05 86.32-21.7 87.89-23.35 89.94-24.25 91.99-25.15 94.14-25.15L94.14-25.15Q96.64-25.15 98.54-24.3 100.44-23.45 101.72-21.9 102.99-20.35 103.64-18.2 104.29-16.05 104.29-13.5L104.29-13.5Q104.29-12.65 104.22-11.9 104.14-11.15 104.04-10.7L104.04-10.7 88.44-10.7Q88.84-7.4 90.77-5.63 92.69-3.85 95.69-3.85L95.69-3.85Q97.29-3.85 98.67-4.33 100.04-4.8 101.39-5.65L101.39-5.65 103.34-2.05Q101.59-0.9 99.44-0.15 97.29 0.6 94.94 0.6ZM88.39-14.6L88.39-14.6 99.29-14.6Q99.29-17.45 98.07-19.07 96.84-20.7 94.29-20.7L94.29-20.7Q92.09-20.7 90.44-19.15 88.79-17.6 88.39-14.6ZM120.04 0.6L120.04 0.6Q117.54 0.6 115.37-0.25 113.19-1.1 111.59-2.75 109.99-4.4 109.09-6.8 108.19-9.2 108.19-12.25L108.19-12.25Q108.19-15.3 109.19-17.7 110.19-20.1 111.89-21.75 113.59-23.4 115.82-24.28 118.04-25.15 120.49-25.15L120.49-25.15Q122.89-25.15 124.62-24.35 126.34-23.55 127.69-22.4L127.69-22.4 124.89-18.65Q123.89-19.5 122.92-19.98 121.94-20.45 120.79-20.45L120.79-20.45Q117.79-20.45 115.94-18.23 114.09-16 114.09-12.25L114.09-12.25Q114.09-8.55 115.92-6.33 117.74-4.1 120.64-4.1L120.64-4.1Q122.09-4.1 123.37-4.73 124.64-5.35 125.69-6.2L125.69-6.2 128.04-2.4Q126.29-0.9 124.22-0.15 122.14 0.6 120.04 0.6ZM138.64 0L132.89 0 132.89-35.3 138.64-35.3 138.64-26.2 138.44-21.45Q139.99-22.9 141.86-24.03 143.74-25.15 146.29-25.15L146.29-25.15Q150.24-25.15 152.04-22.63 153.84-20.1 153.84-15.4L153.84-15.4 153.84 0 148.09 0 148.09-14.65Q148.09-17.7 147.19-18.95 146.29-20.2 144.24-20.2L144.24-20.2Q142.64-20.2 141.41-19.43 140.19-18.65 138.64-17.15L138.64-17.15 138.64 0ZM166.74 0.6L166.74 0.6Q163.49 0.6 161.49-1.38 159.49-3.35 159.49-6.6L159.49-6.6Q159.49-8.55 160.31-10.08 161.14-11.6 162.91-12.7 164.69-13.8 167.41-14.55 170.14-15.3 173.94-15.7L173.94-15.7Q173.89-16.65 173.66-17.53 173.44-18.4 172.91-19.07 172.39-19.75 171.54-20.13 170.69-20.5 169.44-20.5L169.44-20.5Q167.64-20.5 165.91-19.8 164.19-19.1 162.54-18.1L162.54-18.1 160.44-21.95Q162.49-23.25 165.04-24.2 167.59-25.15 170.54-25.15L170.54-25.15Q175.14-25.15 177.41-22.43 179.69-19.7 179.69-14.55L179.69-14.55 179.69 0 174.94 0 174.54-2.7 174.34-2.7Q172.69-1.3 170.81-0.35 168.94 0.6 166.74 0.6ZM168.59-3.9L168.59-3.9Q170.09-3.9 171.31-4.6 172.54-5.3 173.94-6.6L173.94-6.6 173.94-12.1Q171.44-11.8 169.74-11.3 168.04-10.8 166.99-10.18 165.94-9.55 165.49-8.75 165.04-7.95 165.04-7.05L165.04-7.05Q165.04-5.4 166.04-4.65 167.04-3.9 168.59-3.9ZM192.18 0.6L192.18 0.6Q189.08 0.6 187.83-1.25 186.58-3.1 186.58-6.3L186.58-6.3 186.58-35.3 192.33-35.3 192.33-6Q192.33-4.95 192.73-4.53 193.13-4.1 193.58-4.1L193.58-4.1Q193.78-4.1 193.96-4.1 194.13-4.1 194.48-4.2L194.48-4.2 195.23 0.1Q194.08 0.6 192.18 0.6ZM201.78 10.1L201.78 10.1Q200.78 10.1 200.03 9.98 199.28 9.85 198.58 9.6L198.58 9.6 199.63 5.1Q199.98 5.2 200.46 5.33 200.93 5.45 201.38 5.45L201.38 5.45Q203.33 5.45 204.51 4.28 205.68 3.1 206.28 1.25L206.28 1.25 206.73-0.3 197.08-24.55 202.93-24.55 207.18-12.5Q207.73-10.9 208.26-9.13 208.78-7.35 209.33-5.6L209.33-5.6 209.53-5.6Q209.98-7.3 210.46-9.08 210.93-10.85 211.38-12.5L211.38-12.5 215.08-24.55 220.63-24.55 211.73 1.1Q210.98 3.2 210.08 4.85 209.18 6.5 208.01 7.68 206.83 8.85 205.31 9.47 203.78 10.1 201.78 10.1ZM240.83 0L221.63 0 221.63-3.1 233.23-20 222.93-20 222.93-24.55 240.43-24.55 240.43-21.5 228.88-4.6 240.83-4.6 240.83 0ZM255.73 0.6L255.73 0.6Q253.18 0.6 250.98-0.28 248.78-1.15 247.13-2.8 245.48-4.45 244.55-6.83 243.63-9.2 243.63-12.25L243.63-12.25Q243.63-15.25 244.58-17.65 245.53-20.05 247.1-21.7 248.68-23.35 250.73-24.25 252.78-25.15 254.93-25.15L254.93-25.15Q257.43-25.15 259.33-24.3 261.23-23.45 262.5-21.9 263.78-20.35 264.43-18.2 265.08-16.05 265.08-13.5L265.08-13.5Q265.08-12.65 265-11.9 264.93-11.15 264.83-10.7L264.83-10.7 249.23-10.7Q249.63-7.4 251.55-5.63 253.48-3.85 256.48-3.85L256.48-3.85Q258.08-3.85 259.45-4.33 260.83-4.8 262.18-5.65L262.18-5.65 264.13-2.05Q262.38-0.9 260.23-0.15 258.08 0.6 255.73 0.6ZM249.18-14.6L249.18-14.6 260.08-14.6Q260.08-17.45 258.85-19.07 257.63-20.7 255.08-20.7L255.08-20.7Q252.88-20.7 251.23-19.15 249.58-17.6 249.18-14.6Z"
                                   opacity="1"
                                   transform="matrix(1,0,0,1,0,0)"
                                   fill="#ffffff"
                                   class="undefined-text-0"
                                   data-fill-palette-color="primary"
                                   id="text-0" />
                                </svg>
                              </g>
                            </svg>
                          </g>
                          <g
                             transform="matrix(1,0,0,1,75.54431999999998,84.33028947647418)"
                             id="g20">
                            <svg
                               viewBox="0 0 244.43136 26.997162739326114"
                               height="26.997162739326114"
                               width="244.43136"
                               version="1.1"
                               id="svg18">
                              <g
                                 transform="matrix(1,0,0,1,0,0)"
                                 id="g16">
                                <svg
                                   width="244.43136"
                                   viewBox="3.049999952316284 -36 411.010009765625 45.400001525878906"
                                   height="26.997162739326114"
                                   data-palette-color="#ffffff"
                                   version="1.1"
                                   id="svg14">
                                <path
                                   d="M29.65-16.5Q29.65-7.5 26.5-3.73 23.35 0.05 17.75 0.45L17.75 0.45Q18.05 2.15 19.33 3.33 20.6 4.5 23.15 4.5L23.15 4.5Q24.2 4.5 25.48 4.17 26.75 3.85 27.68 3.53 28.6 3.2 28.85 3.05L28.85 3.05 28.85 5.5Q28.65 5.6 27.88 5.93 27.1 6.25 25.85 6.55 24.6 6.85 23.2 6.85L23.2 6.85Q19.2 6.85 17.43 5 15.65 3.15 15.25 0.45L15.25 0.45Q9.5 0.2 6.28-3.58 3.05-7.35 3.05-16.5L3.05-16.5 3.05-17.8Q3.05-27.35 6.58-31.08 10.1-34.8 16.35-34.8L16.35-34.8Q22.6-34.8 26.13-31.08 29.65-27.35 29.65-17.8L29.65-17.8 29.65-16.5ZM16.35-1.9Q21.3-1.9 24.13-4.95 26.95-8 26.95-15.9L26.95-15.9 26.95-18.4Q26.95-26.3 24.13-29.35 21.3-32.4 16.35-32.4L16.35-32.4Q11.4-32.4 8.58-29.35 5.75-26.3 5.75-18.4L5.75-18.4 5.75-15.9Q5.75-8 8.58-4.95 11.4-1.9 16.35-1.9L16.35-1.9ZM56-3.8Q54.7-1.8 52.5-0.65 50.3 0.5 47.75 0.5L47.75 0.5Q43.55 0.5 40.97-1.9 38.4-4.3 38.4-9.1L38.4-9.1 38.4-25.55 40.95-25.55 40.95-9.85Q40.95-5.8 42.82-3.8 44.7-1.8 48.15-1.8L48.15-1.8Q50.35-1.8 52.15-2.85 53.95-3.9 54.97-5.75 56-7.6 56-9.85L56-9.85 56-25.55 58.55-25.55 58.55-3.45Q58.55-1.8 59.9-1.8L59.9-1.8Q61.05-1.8 62.4-2.6L62.4-2.6 62.4-0.45Q61 0.5 59.2 0.5L59.2 0.5Q57.5 0.5 56.75-0.78 56-2.05 56-3.8L56-3.8ZM69.45-33.3L69.45-36 72.4-36 72.4-33.3 69.45-33.3ZM72.2 0L69.65 0 69.65-25.55 72.2-25.55 72.2 0ZM101.59-9.85Q101.59-6.6 100.29-4.28 98.99-1.95 96.74-0.73 94.49 0.5 91.64 0.5L91.64 0.5Q88.49 0.5 86.07-1.03 83.64-2.55 82.29-5.45 80.94-8.35 80.94-12.4L80.94-12.4 80.94-13.15Q80.94-17.2 82.27-20.1 83.59-23 86.02-24.53 88.44-26.05 91.59-26.05L91.59-26.05Q94.44-26.05 96.72-24.83 98.99-23.6 100.29-21.28 101.59-18.95 101.59-15.7L101.59-15.7 99.09-15.7Q99.09-19.6 96.97-21.68 94.84-23.75 91.59-23.75L91.59-23.75Q87.99-23.75 85.74-21.1 83.49-18.45 83.49-13.45L83.49-13.45 83.49-12.1Q83.49-7.1 85.77-4.45 88.04-1.8 91.64-1.8L91.64-1.8Q94.89-1.8 96.99-3.85 99.09-5.9 99.09-9.85L99.09-9.85 101.59-9.85ZM127.49 0L117.49-11.6 112.29-6.35 112.29 0 109.74 0 109.74-36 112.29-36 112.29-9.3 126.79-25.55 129.94-25.55 119.19-13.5 130.79 0 127.49 0ZM149.14 0L149.14-34.3 160.14-34.3Q166.29-34.3 169.86-30.58 173.44-26.85 173.44-17.8L173.44-17.8 173.44-16.55Q173.44-7.55 169.84-3.78 166.24 0 160.14 0L160.14 0 149.14 0ZM160.14-2.4Q165.04-2.4 167.89-5.45 170.74-8.5 170.74-16.1L170.74-16.1 170.74-18.25Q170.74-31.9 160.14-31.9L160.14-31.9 151.84-31.9 151.84-2.4 160.14-2.4ZM182.08-33.3L182.08-36 185.03-36 185.03-33.3 182.08-33.3ZM184.83 0L182.28 0 182.28-25.55 184.83-25.55 184.83 0ZM213.38-3.45Q213.38-1.8 214.73-1.8L214.73-1.8Q215.88-1.8 217.23-2.6L217.23-2.6 217.23-0.45Q215.83 0.5 214.03 0.5L214.03 0.5Q212.23 0.5 211.53-0.83 210.83-2.15 210.83-4.45L210.83-4.45Q209.28-1.9 206.96-0.7 204.63 0.5 201.48 0.5L201.48 0.5Q197.93 0.5 195.68-1.13 193.43-2.75 193.43-6.65L193.43-6.65Q193.43-10.2 195.56-11.98 197.68-13.75 201.31-14.28 204.93-14.8 210.83-14.8L210.83-14.8 210.83-18Q210.83-21.2 209.31-22.48 207.78-23.75 204.18-23.75L204.18-23.75Q200.88-23.75 198.88-22.48 196.88-21.2 196.88-18.55L196.88-18.55 196.88-17.75 194.43-17.75Q194.33-18.55 194.33-19.05L194.33-19.05Q194.33-22.3 197.11-24.18 199.88-26.05 204.18-26.05L204.18-26.05Q208.83-26.05 211.11-24.2 213.38-22.35 213.38-18.5L213.38-18.5 213.38-3.45ZM210.83-12.5Q205.53-12.5 202.51-12.15 199.48-11.8 197.73-10.53 195.98-9.25 195.98-6.6L195.98-6.6Q195.98-4.1 197.41-2.95 198.83-1.8 201.98-1.8L201.98-1.8Q204.23-1.8 206.26-2.8 208.28-3.8 209.56-5.83 210.83-7.85 210.83-10.8L210.83-10.8 210.83-12.5ZM240.48-3.35Q243.08-3.35 244.73-1.65 246.38 0.05 246.38 2.6L246.38 2.6Q246.38 4.5 245.45 6.05 244.53 7.6 242.9 8.5 241.28 9.4 239.23 9.4L239.23 9.4 228.38 9.4Q226.63 9.4 225.18 8.5 223.73 7.6 222.9 6.15 222.08 4.7 222.08 3.05L222.08 3.05Q222.08 1.2 223.08-0.43 224.08-2.05 225.78-2.75L225.78-2.75Q223.53-4.1 223.53-6.75L223.53-6.75Q223.53-8.5 224.6-9.78 225.68-11.05 227.58-11.8L227.58-11.8Q225.98-12.95 225.08-14.55 224.18-16.15 224.18-18L224.18-18Q224.18-21.55 226.63-23.8 229.08-26.05 233.93-26.05L233.93-26.05Q237.18-26.05 239.48-24.95L239.48-24.95Q241.33-25.45 242.53-26.8 243.73-28.15 243.98-30.15L243.98-30.15 246.38-30.15Q246.38-27.95 245-26.05 243.63-24.15 241.43-23.85L241.43-23.85 241.38-23.65Q242.48-22.7 243.08-21.23 243.68-19.75 243.68-18L243.68-18Q243.68-14.45 241.23-12.23 238.78-10 233.93-10L233.93-10 229.83-10Q228.23-10 227.15-9.1 226.08-8.2 226.08-6.65L226.08-6.65Q226.08-5.1 227.13-4.23 228.18-3.35 229.83-3.35L229.83-3.35 240.48-3.35ZM241.13-18Q241.13-20.45 239.2-22.1 237.28-23.75 233.93-23.75L233.93-23.75Q230.58-23.75 228.65-22.1 226.73-20.45 226.73-18L226.73-18Q226.73-15.55 228.65-13.9 230.58-12.25 233.93-12.25L233.93-12.25Q237.28-12.25 239.2-13.9 241.13-15.55 241.13-18L241.13-18ZM239.38 7.1Q241.18 7.1 242.5 5.83 243.83 4.55 243.83 2.75L243.83 2.75Q243.83 1.3 242.78 0.2 241.73-0.9 240.28-0.9L240.28-0.9 228.58-0.9Q226.93-0.9 225.75 0.28 224.58 1.45 224.58 3.1L224.58 3.1Q224.58 4.75 225.75 5.93 226.93 7.1 228.58 7.1L228.58 7.1 239.38 7.1ZM270.43 0L270.43-15.7Q270.43-19.75 268.55-21.75 266.68-23.75 263.23-23.75L263.23-23.75Q261.03-23.75 259.23-22.7 257.43-21.65 256.4-19.8 255.38-17.95 255.38-15.7L255.38-15.7 255.38 0 252.83 0 252.83-25.55 254.53-25.55 255.08-21.75Q256.38-23.75 258.65-24.9 260.93-26.05 263.48-26.05L263.48-26.05Q267.68-26.05 270.3-23.63 272.93-21.2 272.93-16.45L272.93-16.45 272.93 0 270.43 0ZM291.72 0.5Q288.57 0.5 286.12-1.03 283.67-2.55 282.3-5.45 280.92-8.35 280.92-12.4L280.92-12.4 280.92-13.15Q280.92-17.2 282.3-20.1 283.67-23 286.12-24.53 288.57-26.05 291.72-26.05L291.72-26.05Q294.87-26.05 297.32-24.53 299.77-23 301.15-20.1 302.52-17.2 302.52-13.15L302.52-13.15 302.52-12.4Q302.52-8.35 301.15-5.45 299.77-2.55 297.32-1.03 294.87 0.5 291.72 0.5L291.72 0.5ZM291.72-1.8Q295.37-1.8 297.67-4.45 299.97-7.1 299.97-12.1L299.97-12.1 299.97-13.45Q299.97-18.45 297.67-21.1 295.37-23.75 291.72-23.75L291.72-23.75Q288.07-23.75 285.77-21.1 283.47-18.45 283.47-13.45L283.47-13.45 283.47-12.1Q283.47-7.1 285.77-4.45 288.07-1.8 291.72-1.8L291.72-1.8ZM311.82-7.85Q311.77-7.6 311.77-7.15L311.77-7.15Q311.77-4.6 314-3.2 316.22-1.8 320.07-1.8L320.07-1.8Q323.52-1.8 325.42-3.18 327.32-4.55 327.32-6.8L327.32-6.8Q327.32-8.55 326.25-9.55 325.17-10.55 323.6-11.08 322.02-11.6 319.37-12.1L319.37-12.1Q316.32-12.7 314.47-13.33 312.62-13.95 311.32-15.3 310.02-16.65 310.02-19.05L310.02-19.05Q310.02-22.15 312.52-24.1 315.02-26.05 319.92-26.05L319.92-26.05Q323.12-26.05 325.22-25 327.32-23.95 328.3-22.38 329.27-20.8 329.27-19.15L329.27-19.15 329.22-18.45 326.72-18.45 326.72-19.1Q326.72-20.7 325.3-22.23 323.87-23.75 319.47-23.75L319.47-23.75Q315.22-23.75 313.9-22.3 312.57-20.85 312.57-19.15L312.57-19.15Q312.57-17.7 313.57-16.8 314.57-15.9 316.07-15.43 317.57-14.95 320.22-14.4L320.22-14.4Q323.27-13.75 325.22-13.1 327.17-12.45 328.52-11.05 329.87-9.65 329.87-7.3L329.87-7.3Q329.87-3.2 327.05-1.35 324.22 0.5 319.42 0.5L319.42 0.5Q315.77 0.5 313.5-0.65 311.22-1.8 310.25-3.45 309.27-5.1 309.27-6.6L309.27-6.6Q309.27-7.2 309.3-7.5 309.32-7.8 309.32-7.85L309.32-7.85 311.82-7.85ZM347.17-0.35Q346.52 0.05 345.59 0.28 344.67 0.5 343.77 0.5L343.77 0.5Q341.47 0.5 340.07-0.9 338.67-2.3 338.67-5.05L338.67-5.05 338.67-23.25 335.87-23.25 335.87-25.55 338.67-25.55 339.57-33.7 341.22-33.7 341.22-25.55 347.17-25.55 347.17-23.25 341.22-23.25 341.22-5.15Q341.22-3.15 341.99-2.48 342.77-1.8 344.07-1.8L344.07-1.8Q344.62-1.8 345.57-2.05 346.52-2.3 347.17-2.6L347.17-2.6 347.17-0.35ZM355.07-33.3L355.07-36 358.02-36 358.02-33.3 355.07-33.3ZM357.82 0L355.27 0 355.27-25.55 357.82-25.55 357.82 0ZM387.21-9.85Q387.21-6.6 385.91-4.28 384.61-1.95 382.36-0.73 380.11 0.5 377.26 0.5L377.26 0.5Q374.11 0.5 371.69-1.03 369.26-2.55 367.91-5.45 366.56-8.35 366.56-12.4L366.56-12.4 366.56-13.15Q366.56-17.2 367.89-20.1 369.21-23 371.64-24.53 374.06-26.05 377.21-26.05L377.21-26.05Q380.06-26.05 382.34-24.83 384.61-23.6 385.91-21.28 387.21-18.95 387.21-15.7L387.21-15.7 384.71-15.7Q384.71-19.6 382.59-21.68 380.46-23.75 377.21-23.75L377.21-23.75Q373.61-23.75 371.36-21.1 369.11-18.45 369.11-13.45L369.11-13.45 369.11-12.1Q369.11-7.1 371.39-4.45 373.66-1.8 377.26-1.8L377.26-1.8Q380.51-1.8 382.61-3.85 384.71-5.9 384.71-9.85L384.71-9.85 387.21-9.85ZM396.01-7.85Q395.96-7.6 395.96-7.15L395.96-7.15Q395.96-4.6 398.19-3.2 400.41-1.8 404.26-1.8L404.26-1.8Q407.71-1.8 409.61-3.18 411.51-4.55 411.51-6.8L411.51-6.8Q411.51-8.55 410.44-9.55 409.36-10.55 407.79-11.08 406.21-11.6 403.56-12.1L403.56-12.1Q400.51-12.7 398.66-13.33 396.81-13.95 395.51-15.3 394.21-16.65 394.21-19.05L394.21-19.05Q394.21-22.15 396.71-24.1 399.21-26.05 404.11-26.05L404.11-26.05Q407.31-26.05 409.41-25 411.51-23.95 412.49-22.38 413.46-20.8 413.46-19.15L413.46-19.15 413.41-18.45 410.91-18.45 410.91-19.1Q410.91-20.7 409.49-22.23 408.06-23.75 403.66-23.75L403.66-23.75Q399.41-23.75 398.09-22.3 396.76-20.85 396.76-19.15L396.76-19.15Q396.76-17.7 397.76-16.8 398.76-15.9 400.26-15.43 401.76-14.95 404.41-14.4L404.41-14.4Q407.46-13.75 409.41-13.1 411.36-12.45 412.71-11.05 414.06-9.65 414.06-7.3L414.06-7.3Q414.06-3.2 411.24-1.35 408.41 0.5 403.61 0.5L403.61 0.5Q399.96 0.5 397.69-0.65 395.41-1.8 394.44-3.45 393.46-5.1 393.46-6.6L393.46-6.6Q393.46-7.2 393.49-7.5 393.51-7.8 393.51-7.85L393.51-7.85 396.01-7.85Z"
                                   opacity="1"
                                   transform="matrix(1,0,0,1,0,0)"
                                   fill="#ffffff"
                                   class="undefined-text-1"
                                   data-fill-palette-color="secondary"
                                   id="text-1" />
                                </svg>
                              </g>
                            </svg>
                          </g>
                        </svg>
                      </g>
                    </svg>
                  </g>
                  <g
                     transform="matrix(1,0,0,1,120.83273051888199,0)"
                     id="g70">
                    <svg
                       viewBox="0 0 153.854538962236 153.854538962236"
                       height="153.854538962236"
                       width="153.854538962236"
                       version="1.1"
                       id="svg68">
                      <g
                         id="g32">
                        <svg
                           version="1.1"
                           id="svg30" />
                      </g>
                      <g
                         id="icon-0">
                        <svg
                           viewBox="0 0 153.854538962236 153.854538962236"
                           height="153.854538962236"
                           width="153.854538962236"
                           version="1.1"
                           id="svg65">
                          <g
                             id="g36">
                            <path
                               d="M46.156 153.855c-25.491 0-46.156-20.665-46.156-46.157v-61.542c0-25.491 20.665-46.156 46.156-46.156h61.542c25.491 0 46.156 20.665 46.157 46.156v61.542c0 25.491-20.665 46.156-46.157 46.157z"
                               fill="#ffffff"
                               fill-rule="nonzero"
                               stroke="none"
                               stroke-width="1"
                               stroke-linecap="butt"
                               stroke-linejoin="miter"
                               stroke-miterlimit="10"
                               stroke-dasharray=""
                               stroke-dashoffset="0"
                               font-family="none"
                               font-weight="none"
                               font-size="none"
                               text-anchor="none"
                               style="mix-blend-mode:normal;stroke:#ffffff;stroke-opacity:1;stroke-width:5.66311715;stroke-miterlimit:10;stroke-dasharray:none;fill:#ffffff;fill-opacity:0.69536424"
                               data-fill-palette-color="accent"
                               id="path34" />
                          </g>
                          <g
                             transform="matrix(1,0,0,1,39.04040868111801,34.51012366913565)"
                             id="g63"
                             style="fill:#000000;fill-opacity:1">
                            <svg
                               viewBox="0 0 75.77372159999999 84.8342916239647"
                               height="84.8342916239647"
                               width="75.77372159999999"
                               version="1.1"
                               id="svg61"
                               style="fill:#000000;fill-opacity:1">
                              <g
                                 id="g59"
                                 style="fill:#000000;fill-opacity:1">
                                <svg
                                   version="1.1"
                                   x="0"
                                   y="0"
                                   viewBox="9.272614479064941 5.001514911651611 71.45439147949219 79.99848175048828"
                                   enable-background="new 0 0 90 90"
                                   xml:space="preserve"
                                   height="84.8342916239647"
                                   width="75.77372159999999"
                                   class="icon-c-0"
                                   data-fill-palette-color="quaternary"
                                   id="c-0"
                                   style="fill:#000000;fill-opacity:1"><g
                                   fill="#62bfd0"
                                   data-fill-palette-color="quaternary"
                                   id="g56"
                                   style="fill:#000000;fill-opacity:1"><g
                                   fill="#62bfd0"
                                   data-fill-palette-color="quaternary"
                                   id="g40"
                                   style="fill:#000000;fill-opacity:1"><path
                                   d="M37.225 70.993c-8.955 0-15.963-2.729-20.833-8.108C8.07 53.688 9.313 40.196 9.37 39.626c0.155-1.547 1.456-2.724 3.01-2.724h17.35l-5.063-5.063c-0.653-0.653-0.972-1.568-0.866-2.485s0.624-1.736 1.408-2.223l12.208-7.593-14.964-8.912c-1.436-0.855-1.906-2.712-1.051-4.147s2.711-1.906 4.147-1.051l19.234 11.455c0.907 0.541 1.467 1.515 1.477 2.57 0.011 1.056-0.531 2.041-1.427 2.598l-13.192 8.205 7.533 7.533c0.865 0.865 1.124 2.167 0.656 3.297-0.468 1.13-1.572 1.868-2.795 1.868h-21.69c0.115 3.826 0.997 10.88 5.56 15.9 3.673 4.041 9.164 6.09 16.321 6.09 1.671 0 3.025 1.354 3.025 3.025S38.896 70.993 37.225 70.993z"
                                   fill="#62bfd0"
                                   data-fill-palette-color="quaternary"
                                   id="path38"
                                   style="fill:#000000;fill-opacity:1" /></g><g
                                   fill="#62bfd0"
                                   data-fill-palette-color="quaternary"
                                   id="g54"
                                   style="fill:#000000;fill-opacity:1"><g
                                   fill="#62bfd0"
                                   data-fill-palette-color="quaternary"
                                   id="g44"
                                   style="fill:#000000;fill-opacity:1"><path
                                   d="M49.971 68.876c-0.774 0-1.548-0.295-2.139-0.886-1.183-1.182-1.183-3.097-0.001-4.278 5.383-5.383 5.383-14.142 0.001-19.523-1.183-1.181-1.183-3.097 0-4.279 1.181-1.181 3.097-1.181 4.277 0 7.742 7.742 7.742 20.338 0.001 28.081C51.52 68.581 50.745 68.876 49.971 68.876z"
                                   fill="#62bfd0"
                                   data-fill-palette-color="quaternary"
                                   id="path42"
                                   style="fill:#000000;fill-opacity:1" /></g><g
                                   fill="#62bfd0"
                                   data-fill-palette-color="quaternary"
                                   id="g48"
                                   style="fill:#000000;fill-opacity:1"><path
                                   d="M58.549 76.242c-0.774 0-1.549-0.295-2.139-0.886-1.183-1.182-1.183-3.097 0-4.278 4.574-4.575 7.094-10.658 7.094-17.128 0-6.471-2.52-12.554-7.094-17.128-1.183-1.182-1.183-3.098 0-4.279 1.181-1.181 3.097-1.181 4.277 0 5.719 5.718 8.867 13.32 8.867 21.407 0 8.086-3.148 15.688-8.867 21.406C60.098 75.947 59.323 76.242 58.549 76.242z"
                                   fill="#62bfd0"
                                   data-fill-palette-color="quaternary"
                                   id="path46"
                                   style="fill:#000000;fill-opacity:1" /></g><g
                                   fill="#62bfd0"
                                   data-fill-palette-color="quaternary"
                                   id="g52"
                                   style="fill:#000000;fill-opacity:1"><path
                                   d="M66.094 85c-0.773 0-1.549-0.296-2.139-0.887-1.182-1.181-1.182-3.097 0-4.278 6.914-6.914 10.722-16.107 10.722-25.885 0-9.779-3.807-18.972-10.721-25.886-1.183-1.181-1.183-3.097 0-4.278 1.18-1.181 3.097-1.181 4.277 0 8.058 8.057 12.495 18.769 12.494 30.164 0 11.394-4.437 22.106-12.494 30.163C67.643 84.704 66.868 85 66.094 85z"
                                   fill="#62bfd0"
                                   data-fill-palette-color="quaternary"
                                   id="path50"
                                   style="fill:#000000;fill-opacity:1" /></g></g></g></svg>
                              </g>
                            </svg>
                          </g>
                        </svg>
                      </g>
                    </svg>
                  </g>
                  <g
                     id="g72" />
                </svg>
              </g>
            </svg>
          </g>
          <defs
             id="defs82" />
        </svg>
        <rect
           width="347.5886424721545"
           height="247.2"
           fill="none"
           stroke="none"
           visibility="hidden"
           id="rect86" />
      </g>
    </svg>
  </g>
</svg>
