<?xml version="1.0" encoding="UTF-8" standalone="no"?>
<!-- Created with Inkscape (http://www.inkscape.org/) -->

<svg
   width="129.541mm"
   height="70.516998mm"
   viewBox="0 0 129.541 70.516998"
   version="1.1"
   id="svg5"
   inkscape:version="1.1 (c68e22c387, 2021-05-23)"
   sodipodi:docname="logo-compact.svg"
   xmlns:inkscape="http://www.inkscape.org/namespaces/inkscape"
   xmlns:sodipodi="http://sodipodi.sourceforge.net/DTD/sodipodi-0.dtd"
   xmlns="http://www.w3.org/2000/svg"
   xmlns:svg="http://www.w3.org/2000/svg">
  <sodipodi:namedview
     id="namedview7"
     pagecolor="#ffffff"
     bordercolor="#666666"
     borderopacity="1.0"
     inkscape:pageshadow="2"
     inkscape:pageopacity="0.0"
     inkscape:pagecheckerboard="0"
     inkscape:document-units="mm"
     showgrid="false"
     inkscape:zoom="0.74118967"
     inkscape:cx="138.29119"
     inkscape:cy="263.76514"
     inkscape:window-width="1920"
     inkscape:window-height="1017"
     inkscape:window-x="-8"
     inkscape:window-y="-8"
     inkscape:window-maximized="1"
     inkscape:current-layer="layer1" />
  <defs
     id="defs2" />
  <g
     inkscape:label="Ebene 1"
     inkscape:groupmode="layer"
     id="layer1">
    <g
       id="tight-bounds"
       transform="matrix(0.26458333,0,0,0.26458333,0,0.74918355)">
      <svg
         viewBox="0 0 347.58864 247.2"
         height="247.2"
         width="347.58865"
         version="1.1"
         id="svg84">
        <g
           id="g80">
          <svg
             viewBox="0 0 347.58864 247.2"
             height="247.2"
             width="347.58865"
             version="1.1"
             id="svg78">
            <g
               id="g76">
              <svg
                 viewBox="0 0 395.52 281.28809"
                 height="247.2"
                 width="347.58865"
                 version="1.1"
                 id="svg74">
                <g
                   transform="translate(0,169.96063)"
                   id="g28">
                  <svg
                     viewBox="0 0 395.52 111.32745"
                     height="111.32745"
                     width="395.51999"
                     version="1.1"
                     id="svg26">
                    <g
                       id="g24">
                      <svg
                         viewBox="0 0 395.52 111.32745"
                         height="111.32745"
                         width="395.51999"
                         version="1.1"
                         id="svg22">
                        <g
                           id="g11">
                          <svg
                             viewBox="0 0 395.52 68.224195"
                             height="68.224197"
                             width="395.51999"
                             version="1.1"
                             id="svg9">
                            <g
                               id="g7">
                              <svg
                                 width="395.51999"
                                 viewBox="1.9000001 -35.299999 263.17999 45.400002"
                                 height="68.224197"
                                 data-palette-color="#ffffff"
                                 version="1.1"
                                 id="svg5-3">
                                <path
                                   d="m 13.7,0.6 v 0 Q 10.4,0.6 7.33,-0.65 4.25,-1.9 1.9,-4.2 v 0 l 3.4,-3.95 q 1.75,1.65 4,2.67 2.25,1.03 4.5,1.03 v 0 q 2.8,0 4.25,-1.15 1.45,-1.15 1.45,-3.05 v 0 q 0,-1 -0.37,-1.7 -0.38,-0.7 -1.06,-1.23 -0.67,-0.52 -1.59,-0.97 -0.93,-0.45 -2.03,-0.9 v 0 L 9.95,-15.4 Q 8.75,-15.9 7.58,-16.65 6.4,-17.4 5.45,-18.45 4.5,-19.5 3.93,-20.9 3.35,-22.3 3.35,-24.1 v 0 q 0,-1.95 0.82,-3.63 0.83,-1.67 2.28,-2.92 1.45,-1.25 3.48,-1.95 2.02,-0.7 4.42,-0.7 v 0 q 2.85,0 5.5,1.12 2.65,1.13 4.55,3.03 v 0 l -2.95,3.7 q -1.6,-1.3 -3.3,-2.05 -1.7,-0.75 -3.8,-0.75 v 0 q -2.35,0 -3.75,1.02 -1.4,1.03 -1.4,2.83 v 0 q 0,0.95 0.43,1.62 0.42,0.68 1.15,1.2 0.72,0.53 1.67,0.95 0.95,0.43 1.95,0.83 v 0 l 4.45,1.85 q 1.45,0.6 2.65,1.4 1.2,0.8 2.08,1.85 0.87,1.05 1.37,2.42 0.5,1.38 0.5,3.18 v 0 q 0,2 -0.8,3.75 -0.8,1.75 -2.32,3.08 -1.53,1.32 -3.7,2.09 Q 16.45,0.6 13.7,0.6 Z M 36.65,9.7 H 30.9 v -34.25 h 4.75 l 0.4,2.6 h 0.2 q 1.55,-1.3 3.45,-2.25 1.9,-0.95 3.95,-0.95 v 0 q 2.3,0 4.07,0.87 1.78,0.88 3.03,2.53 1.25,1.65 1.9,3.95 0.65,2.3 0.65,5.15 v 0 q 0,3.15 -0.88,5.62 -0.87,2.48 -2.32,4.15 -1.45,1.68 -3.35,2.58 -1.9,0.9 -3.95,0.9 v 0 q -1.6,0 -3.2,-0.7 -1.6,-0.7 -3.1,-2 v 0 L 36.65,2 Z M 41.6,-4.15 v 0 q 2.45,0 4.1,-2.13 1.65,-2.12 1.65,-6.32 v 0 q 0,-3.7 -1.25,-5.75 -1.25,-2.05 -4.05,-2.05 v 0 q -2.6,0 -5.4,2.75 v 0 11.45 q 1.35,1.15 2.6,1.6 1.25,0.45 2.35,0.45 z m 28,4.75 v 0 Q 67.05,0.6 64.85,-0.28 62.65,-1.15 61,-2.8 59.35,-4.45 58.42,-6.83 57.5,-9.2 57.5,-12.25 v 0 q 0,-3 0.95,-5.4 0.95,-2.4 2.52,-4.05 1.58,-1.65 3.63,-2.55 2.05,-0.9 4.2,-0.9 v 0 q 2.5,0 4.4,0.85 1.9,0.85 3.17,2.4 1.28,1.55 1.93,3.7 0.65,2.15 0.65,4.7 v 0 q 0,0.85 -0.08,1.6 -0.07,0.75 -0.17,1.2 v 0 H 63.1 q 0.4,3.3 2.32,5.07 1.93,1.78 4.93,1.78 v 0 q 1.6,0 2.97,-0.48 1.38,-0.47 2.73,-1.32 v 0 l 1.95,3.6 q -1.75,1.15 -3.9,1.9 -2.15,0.75 -4.5,0.75 z m -6.55,-15.2 v 0 h 10.9 q 0,-2.85 -1.23,-4.47 -1.22,-1.63 -3.77,-1.63 v 0 q -2.2,0 -3.85,1.55 -1.65,1.55 -2.05,4.55 z M 94.94,0.6 v 0 q -2.55,0 -4.75,-0.88 -2.2,-0.87 -3.85,-2.52 -1.65,-1.65 -2.57,-4.03 -0.93,-2.37 -0.93,-5.42 v 0 q 0,-3 0.95,-5.4 0.95,-2.4 2.53,-4.05 1.57,-1.65 3.62,-2.55 2.05,-0.9 4.2,-0.9 v 0 q 2.5,0 4.4,0.85 1.9,0.85 3.18,2.4 1.27,1.55 1.92,3.7 0.65,2.15 0.65,4.7 v 0 q 0,0.85 -0.07,1.6 -0.08,0.75 -0.18,1.2 v 0 h -15.6 q 0.4,3.3 2.33,5.07 1.92,1.78 4.92,1.78 v 0 q 1.6,0 2.98,-0.48 1.37,-0.47 2.72,-1.32 v 0 l 1.95,3.6 q -1.75,1.15 -3.9,1.9 -2.15,0.75 -4.5,0.75 z m -6.55,-15.2 v 0 h 10.9 q 0,-2.85 -1.22,-4.47 -1.23,-1.63 -3.78,-1.63 v 0 q -2.2,0 -3.85,1.55 -1.65,1.55 -2.05,4.55 z m 31.65,15.2 v 0 q -2.5,0 -4.67,-0.85 -2.18,-0.85 -3.78,-2.5 -1.6,-1.65 -2.5,-4.05 -0.9,-2.4 -0.9,-5.45 v 0 q 0,-3.05 1,-5.45 1,-2.4 2.7,-4.05 1.7,-1.65 3.93,-2.53 2.22,-0.87 4.67,-0.87 v 0 q 2.4,0 4.13,0.8 1.72,0.8 3.07,1.95 v 0 l -2.8,3.75 q -1,-0.85 -1.97,-1.33 -0.98,-0.47 -2.13,-0.47 v 0 q -3,0 -4.85,2.22 -1.85,2.23 -1.85,5.98 v 0 q 0,3.7 1.83,5.92 1.82,2.23 4.72,2.23 v 0 q 1.45,0 2.73,-0.63 1.27,-0.62 2.32,-1.47 v 0 l 2.35,3.8 q -1.75,1.5 -3.82,2.25 -2.08,0.75 -4.18,0.75 z M 138.64,0 h -5.75 v -35.3 h 5.75 v 9.1 l -0.2,4.75 q 1.55,-1.45 3.42,-2.58 1.88,-1.12 4.43,-1.12 v 0 q 3.95,0 5.75,2.52 1.8,2.53 1.8,7.23 v 0 V 0 h -5.75 v -14.65 q 0,-3.05 -0.9,-4.3 -0.9,-1.25 -2.95,-1.25 v 0 q -1.6,0 -2.83,0.77 -1.22,0.78 -2.77,2.28 v 0 z m 28.1,0.6 v 0 q -3.25,0 -5.25,-1.98 -2,-1.97 -2,-5.22 v 0 q 0,-1.95 0.82,-3.48 0.83,-1.52 2.6,-2.62 1.78,-1.1 4.5,-1.85 2.73,-0.75 6.53,-1.15 v 0 q -0.05,-0.95 -0.28,-1.83 -0.22,-0.87 -0.75,-1.54 -0.52,-0.68 -1.37,-1.06 -0.85,-0.37 -2.1,-0.37 v 0 q -1.8,0 -3.53,0.7 -1.72,0.7 -3.37,1.7 v 0 l -2.1,-3.85 q 2.05,-1.3 4.6,-2.25 2.55,-0.95 5.5,-0.95 v 0 q 4.6,0 6.87,2.72 2.28,2.73 2.28,7.88 v 0 V 0 h -4.75 l -0.4,-2.7 h -0.2 q -1.65,1.4 -3.53,2.35 -1.87,0.95 -4.07,0.95 z m 1.85,-4.5 v 0 q 1.5,0 2.72,-0.7 1.23,-0.7 2.63,-2 v 0 -5.5 q -2.5,0.3 -4.2,0.8 -1.7,0.5 -2.75,1.12 -1.05,0.63 -1.5,1.43 -0.45,0.8 -0.45,1.7 v 0 q 0,1.65 1,2.4 1,0.75 2.55,0.75 z m 23.59,4.5 v 0 q -3.1,0 -4.35,-1.85 -1.25,-1.85 -1.25,-5.05 v 0 -29 h 5.75 V -6 q 0,1.05 0.4,1.47 0.4,0.43 0.85,0.43 v 0 q 0.2,0 0.38,0 0.17,0 0.52,-0.1 v 0 l 0.75,4.3 q -1.15,0.5 -3.05,0.5 z m 9.6,9.5 v 0 q -1,0 -1.75,-0.12 -0.75,-0.13 -1.45,-0.38 v 0 l 1.05,-4.5 q 0.35,0.1 0.83,0.23 0.47,0.12 0.92,0.12 v 0 q 1.95,0 3.13,-1.17 1.17,-1.18 1.77,-3.03 v 0 l 0.45,-1.55 -9.65,-24.25 h 5.85 l 4.25,12.05 q 0.55,1.6 1.08,3.37 0.52,1.78 1.07,3.53 v 0 h 0.2 q 0.45,-1.7 0.93,-3.48 0.47,-1.77 0.92,-3.42 v 0 l 3.7,-12.05 h 5.55 l -8.9,25.65 q -0.75,2.1 -1.65,3.75 -0.9,1.65 -2.07,2.83 -1.18,1.17 -2.7,1.79 -1.53,0.63 -3.53,0.63 z M 240.83,0 h -19.2 v -3.1 l 11.6,-16.9 h -10.3 v -4.55 h 17.5 v 3.05 l -11.55,16.9 h 11.95 z m 14.9,0.6 v 0 q -2.55,0 -4.75,-0.88 -2.2,-0.87 -3.85,-2.52 -1.65,-1.65 -2.58,-4.03 -0.92,-2.37 -0.92,-5.42 v 0 q 0,-3 0.95,-5.4 0.95,-2.4 2.52,-4.05 1.58,-1.65 3.63,-2.55 2.05,-0.9 4.2,-0.9 v 0 q 2.5,0 4.4,0.85 1.9,0.85 3.17,2.4 1.28,1.55 1.93,3.7 0.65,2.15 0.65,4.7 v 0 q 0,0.85 -0.08,1.6 -0.07,0.75 -0.17,1.2 v 0 h -15.6 q 0.4,3.3 2.32,5.07 1.93,1.78 4.93,1.78 v 0 q 1.6,0 2.97,-0.48 1.38,-0.47 2.73,-1.32 v 0 l 1.95,3.6 q -1.75,1.15 -3.9,1.9 -2.15,0.75 -4.5,0.75 z m -6.55,-15.2 v 0 h 10.9 q 0,-2.85 -1.23,-4.47 -1.22,-1.63 -3.77,-1.63 v 0 q -2.2,0 -3.85,1.55 -1.65,1.55 -2.05,4.55 z"
                                   opacity="1"
                                   fill="#ffffff"
                                   class="undefined-text-0"
                                   data-fill-palette-color="primary"
                                   id="text-0" />
                              </svg>
                            </g>
                          </svg>
                        </g>
                        <g
                           transform="translate(75.54432,84.330289)"
                           id="g20">
                          <svg
                             viewBox="0 0 244.43136 26.997163"
                             height="26.997162"
                             width="244.43137"
                             version="1.1"
                             id="svg18">
                            <g
                               id="g16">
                              <svg
                                 width="244.43137"
                                 viewBox="3.05 -36 411.01001 45.400002"
                                 height="26.997162"
                                 data-palette-color="#ffffff"
                                 version="1.1"
                                 id="svg14">
                                <path
                                   d="m 29.65,-16.5 q 0,9 -3.15,12.77 -3.15,3.78 -8.75,4.18 v 0 q 0.3,1.7 1.58,2.88 1.27,1.17 3.82,1.17 v 0 q 1.05,0 2.33,-0.33 1.27,-0.32 2.2,-0.64 0.92,-0.33 1.17,-0.48 v 0 2.45 q -0.2,0.1 -0.97,0.43 -0.78,0.32 -2.03,0.62 -1.25,0.3 -2.65,0.3 v 0 Q 19.2,6.85 17.43,5 15.65,3.15 15.25,0.45 v 0 Q 9.5,0.2 6.28,-3.58 3.05,-7.35 3.05,-16.5 v 0 -1.3 q 0,-9.55 3.53,-13.28 3.52,-3.72 9.77,-3.72 v 0 q 6.25,0 9.78,3.72 3.52,3.73 3.52,13.28 v 0 z m -13.3,14.6 q 4.95,0 7.78,-3.05 2.82,-3.05 2.82,-10.95 v 0 -2.5 q 0,-7.9 -2.82,-10.95 -2.83,-3.05 -7.78,-3.05 v 0 q -4.95,0 -7.77,3.05 -2.83,3.05 -2.83,10.95 v 0 2.5 q 0,7.9 2.83,10.95 2.82,3.05 7.77,3.05 z M 56,-3.8 q -1.3,2 -3.5,3.15 -2.2,1.15 -4.75,1.15 v 0 q -4.2,0 -6.78,-2.4 -2.57,-2.4 -2.57,-7.2 v 0 -16.45 h 2.55 v 15.7 q 0,4.05 1.87,6.05 1.88,2 5.33,2 v 0 q 2.2,0 4,-1.05 1.8,-1.05 2.82,-2.9 Q 56,-7.6 56,-9.85 v 0 -15.7 h 2.55 v 22.1 q 0,1.65 1.35,1.65 v 0 q 1.15,0 2.5,-0.8 v 0 2.15 Q 61,0.5 59.2,0.5 v 0 Q 57.5,0.5 56.75,-0.78 56,-2.05 56,-3.8 Z M 69.45,-33.3 V -36 h 2.95 v 2.7 z M 72.2,0 h -2.55 v -25.55 h 2.55 z m 29.39,-9.85 q 0,3.25 -1.3,5.57 -1.3,2.33 -3.55,3.55 -2.25,1.23 -5.1,1.23 v 0 q -3.15,0 -5.57,-1.53 -2.43,-1.52 -3.78,-4.42 -1.35,-2.9 -1.35,-6.95 v 0 -0.75 q 0,-4.05 1.33,-6.95 1.32,-2.9 3.75,-4.43 2.42,-1.52 5.57,-1.52 v 0 q 2.85,0 5.13,1.22 2.27,1.23 3.57,3.55 1.3,2.33 1.3,5.58 v 0 h -2.5 q 0,-3.9 -2.12,-5.98 -2.13,-2.07 -5.38,-2.07 v 0 q -3.6,0 -5.85,2.65 -2.25,2.65 -2.25,7.65 v 0 1.35 q 0,5 2.28,7.65 2.27,2.65 5.87,2.65 v 0 q 3.25,0 5.35,-2.05 2.1,-2.05 2.1,-6 v 0 z m 25.9,9.85 -10,-11.6 -5.2,5.25 V 0 h -2.55 v -36 h 2.55 v 26.7 l 14.5,-16.25 h 3.15 L 119.19,-13.5 130.79,0 Z m 21.65,0 v -34.3 h 11 q 6.15,0 9.72,3.72 3.58,3.73 3.58,12.78 v 0 1.25 q 0,9 -3.6,12.77 -3.6,3.78 -9.7,3.78 v 0 z m 11,-2.4 q 4.9,0 7.75,-3.05 2.85,-3.05 2.85,-10.65 v 0 -2.15 q 0,-13.65 -10.6,-13.65 v 0 h -8.3 v 29.5 z m 21.94,-30.9 V -36 h 2.95 v 2.7 z M 184.83,0 h -2.55 v -25.55 h 2.55 z m 28.55,-3.45 q 0,1.65 1.35,1.65 v 0 q 1.15,0 2.5,-0.8 v 0 2.15 q -1.4,0.95 -3.2,0.95 v 0 q -1.8,0 -2.5,-1.33 -0.7,-1.32 -0.7,-3.62 v 0 q -1.55,2.55 -3.87,3.75 -2.33,1.2 -5.48,1.2 v 0 q -3.55,0 -5.8,-1.63 -2.25,-1.62 -2.25,-5.52 v 0 q 0,-3.55 2.13,-5.33 2.12,-1.77 5.75,-2.3 3.62,-0.52 9.52,-0.52 v 0 -3.2 q 0,-3.2 -1.52,-4.48 -1.53,-1.27 -5.13,-1.27 v 0 q -3.3,0 -5.3,1.27 -2,1.28 -2,3.93 v 0 0.8 h -2.45 q -0.1,-0.8 -0.1,-1.3 v 0 q 0,-3.25 2.78,-5.13 2.77,-1.87 7.07,-1.87 v 0 q 4.65,0 6.93,1.85 2.27,1.85 2.27,5.7 v 0 z m -2.55,-9.05 q -5.3,0 -8.32,0.35 -3.03,0.35 -4.78,1.62 -1.75,1.28 -1.75,3.93 v 0 q 0,2.5 1.43,3.65 1.42,1.15 4.57,1.15 v 0 q 2.25,0 4.28,-1 2.02,-1 3.3,-3.03 1.27,-2.02 1.27,-4.97 v 0 z m 29.65,9.15 q 2.6,0 4.25,1.7 1.65,1.7 1.65,4.25 v 0 q 0,1.9 -0.93,3.45 -0.92,1.55 -2.55,2.45 -1.62,0.9 -3.67,0.9 v 0 h -10.85 q -1.75,0 -3.2,-0.9 -1.45,-0.9 -2.28,-2.35 -0.82,-1.45 -0.82,-3.1 v 0 q 0,-1.85 1,-3.48 1,-1.62 2.7,-2.32 v 0 q -2.25,-1.35 -2.25,-4 v 0 q 0,-1.75 1.07,-3.03 1.08,-1.27 2.98,-2.02 v 0 q -1.6,-1.15 -2.5,-2.75 -0.9,-1.6 -0.9,-3.45 v 0 q 0,-3.55 2.45,-5.8 2.45,-2.25 7.3,-2.25 v 0 q 3.25,0 5.55,1.1 v 0 q 1.85,-0.5 3.05,-1.85 1.2,-1.35 1.45,-3.35 v 0 h 2.4 q 0,2.2 -1.38,4.1 -1.37,1.9 -3.57,2.2 v 0 l -0.05,0.2 q 1.1,0.95 1.7,2.42 0.6,1.48 0.6,3.23 v 0 q 0,3.55 -2.45,5.77 -2.45,2.23 -7.3,2.23 v 0 h -4.1 q -1.6,0 -2.68,0.9 -1.07,0.9 -1.07,2.45 v 0 q 0,1.55 1.05,2.42 1.05,0.88 2.7,0.88 v 0 z M 241.13,-18 q 0,-2.45 -1.93,-4.1 -1.92,-1.65 -5.27,-1.65 v 0 q -3.35,0 -5.28,1.65 -1.92,1.65 -1.92,4.1 v 0 q 0,2.45 1.92,4.1 1.93,1.65 5.28,1.65 v 0 q 3.35,0 5.27,-1.65 1.93,-1.65 1.93,-4.1 z m -1.75,25.1 q 1.8,0 3.12,-1.27 1.33,-1.28 1.33,-3.08 v 0 q 0,-1.45 -1.05,-2.55 -1.05,-1.1 -2.5,-1.1 v 0 h -11.7 q -1.65,0 -2.83,1.18 -1.17,1.17 -1.17,2.82 v 0 q 0,1.65 1.17,2.83 1.18,1.17 2.83,1.17 v 0 z M 270.43,0 v -15.7 q 0,-4.05 -1.88,-6.05 -1.87,-2 -5.32,-2 v 0 q -2.2,0 -4,1.05 -1.8,1.05 -2.83,2.9 -1.02,1.85 -1.02,4.1 v 0 V 0 h -2.55 v -25.55 h 1.7 l 0.55,3.8 q 1.3,-2 3.57,-3.15 2.28,-1.15 4.83,-1.15 v 0 q 4.2,0 6.82,2.42 2.63,2.43 2.63,7.18 v 0 V 0 Z m 21.29,0.5 q -3.15,0 -5.6,-1.53 -2.45,-1.52 -3.82,-4.42 -1.38,-2.9 -1.38,-6.95 v 0 -0.75 q 0,-4.05 1.38,-6.95 1.37,-2.9 3.82,-4.43 2.45,-1.52 5.6,-1.52 v 0 q 3.15,0 5.6,1.52 2.45,1.53 3.83,4.43 1.37,2.9 1.37,6.95 v 0 0.75 q 0,4.05 -1.37,6.95 -1.38,2.9 -3.83,4.42 -2.45,1.53 -5.6,1.53 z m 0,-2.3 q 3.65,0 5.95,-2.65 2.3,-2.65 2.3,-7.65 v 0 -1.35 q 0,-5 -2.3,-7.65 -2.3,-2.65 -5.95,-2.65 v 0 q -3.65,0 -5.95,2.65 -2.3,2.65 -2.3,7.65 v 0 1.35 q 0,5 2.3,7.65 2.3,2.65 5.95,2.65 z m 20.1,-6.05 q -0.05,0.25 -0.05,0.7 v 0 q 0,2.55 2.23,3.95 2.22,1.4 6.07,1.4 v 0 q 3.45,0 5.35,-1.38 1.9,-1.37 1.9,-3.62 v 0 q 0,-1.75 -1.07,-2.75 -1.08,-1 -2.65,-1.53 -1.58,-0.52 -4.23,-1.02 v 0 q -3.05,-0.6 -4.9,-1.23 -1.85,-0.62 -3.15,-1.97 -1.3,-1.35 -1.3,-3.75 v 0 q 0,-3.1 2.5,-5.05 2.5,-1.95 7.4,-1.95 v 0 q 3.2,0 5.3,1.05 2.1,1.05 3.08,2.62 0.97,1.58 0.97,3.23 v 0 l -0.05,0.7 h -2.5 v -0.65 q 0,-1.6 -1.42,-3.13 -1.43,-1.52 -5.83,-1.52 v 0 q -4.25,0 -5.57,1.45 -1.33,1.45 -1.33,3.15 v 0 q 0,1.45 1,2.35 1,0.9 2.5,1.37 1.5,0.48 4.15,1.03 v 0 q 3.05,0.65 5,1.3 1.95,0.65 3.3,2.05 1.35,1.4 1.35,3.75 v 0 q 0,4.1 -2.82,5.95 -2.83,1.85 -7.63,1.85 v 0 q -3.65,0 -5.92,-1.15 -2.28,-1.15 -3.25,-2.8 -0.98,-1.65 -0.98,-3.15 v 0 q 0,-0.6 0.03,-0.9 0.02,-0.3 0.02,-0.35 v 0 z m 35.35,7.5 q -0.65,0.4 -1.58,0.63 -0.92,0.22 -1.82,0.22 v 0 q -2.3,0 -3.7,-1.4 -1.4,-1.4 -1.4,-4.15 v 0 -18.2 h -2.8 v -2.3 h 2.8 l 0.9,-8.15 h 1.65 v 8.15 h 5.95 v 2.3 h -5.95 v 18.1 q 0,2 0.77,2.67 0.78,0.68 2.08,0.68 v 0 q 0.55,0 1.5,-0.25 0.95,-0.25 1.6,-0.55 v 0 z m 7.9,-32.95 V -36 h 2.95 v 2.7 z M 357.82,0 h -2.55 v -25.55 h 2.55 z m 29.39,-9.85 q 0,3.25 -1.3,5.57 -1.3,2.33 -3.55,3.55 -2.25,1.23 -5.1,1.23 v 0 q -3.15,0 -5.57,-1.53 -2.43,-1.52 -3.78,-4.42 -1.35,-2.9 -1.35,-6.95 v 0 -0.75 q 0,-4.05 1.33,-6.95 1.32,-2.9 3.75,-4.43 2.42,-1.52 5.57,-1.52 v 0 q 2.85,0 5.13,1.22 2.27,1.23 3.57,3.55 1.3,2.33 1.3,5.58 v 0 h -2.5 q 0,-3.9 -2.12,-5.98 -2.13,-2.07 -5.38,-2.07 v 0 q -3.6,0 -5.85,2.65 -2.25,2.65 -2.25,7.65 v 0 1.35 q 0,5 2.28,7.65 2.27,2.65 5.87,2.65 v 0 q 3.25,0 5.35,-2.05 2.1,-2.05 2.1,-6 v 0 z m 8.8,2 q -0.05,0.25 -0.05,0.7 v 0 q 0,2.55 2.23,3.95 2.22,1.4 6.07,1.4 v 0 q 3.45,0 5.35,-1.38 1.9,-1.37 1.9,-3.62 v 0 q 0,-1.75 -1.07,-2.75 -1.08,-1 -2.65,-1.53 -1.58,-0.52 -4.23,-1.02 v 0 q -3.05,-0.6 -4.9,-1.23 -1.85,-0.62 -3.15,-1.97 -1.3,-1.35 -1.3,-3.75 v 0 q 0,-3.1 2.5,-5.05 2.5,-1.95 7.4,-1.95 v 0 q 3.2,0 5.3,1.05 2.1,1.05 3.08,2.62 0.97,1.58 0.97,3.23 v 0 l -0.05,0.7 h -2.5 v -0.65 q 0,-1.6 -1.42,-3.13 -1.43,-1.52 -5.83,-1.52 v 0 q -4.25,0 -5.57,1.45 -1.33,1.45 -1.33,3.15 v 0 q 0,1.45 1,2.35 1,0.9 2.5,1.37 1.5,0.48 4.15,1.03 v 0 q 3.05,0.65 5,1.3 1.95,0.65 3.3,2.05 1.35,1.4 1.35,3.75 v 0 q 0,4.1 -2.82,5.95 -2.83,1.85 -7.63,1.85 v 0 q -3.65,0 -5.92,-1.15 -2.28,-1.15 -3.25,-2.8 -0.98,-1.65 -0.98,-3.15 v 0 q 0,-0.6 0.03,-0.9 0.02,-0.3 0.02,-0.35 v 0 z"
                                   opacity="1"
                                   fill="#ffffff"
                                   class="undefined-text-1"
                                   data-fill-palette-color="secondary"
                                   id="text-1" />
                              </svg>
                            </g>
                          </svg>
                        </g>
                      </svg>
                    </g>
                  </svg>
                </g>
                <g
                   transform="translate(120.83273)"
                   id="g70">
                  <svg
                     viewBox="0 0 153.85454 153.85454"
                     height="153.85454"
                     width="153.85454"
                     version="1.1"
                     id="svg68">
                    <g
                       id="g32">
                      <svg
                         version="1.1"
                         id="svg30"
                         width="100%"
                         height="100%" />
                    </g>
                    <g
                       id="icon-0">
                      <svg
                         viewBox="0 0 153.85454 153.85454"
                         height="153.85454"
                         width="153.85454"
                         version="1.1"
                         id="svg65">
                        <g
                           id="g36">
                          <path
                             d="M 46.156,153.855 C 20.665,153.855 0,133.19 0,107.698 V 46.156 C 0,20.665 20.665,0 46.156,0 h 61.542 c 25.491,0 46.156,20.665 46.157,46.156 v 61.542 c 0,25.491 -20.665,46.156 -46.157,46.157 z"
                             fill="#ffffff"
                             fill-rule="nonzero"
                             stroke="none"
                             stroke-width="1"
                             stroke-linecap="butt"
                             stroke-linejoin="miter"
                             stroke-miterlimit="10"
                             stroke-dasharray=""
                             stroke-dashoffset="0"
                             font-family="none"
                             font-weight="none"
                             font-size="none"
                             text-anchor="none"
                             style="mix-blend-mode:normal;fill:#ffffff;fill-opacity:0.695364;stroke:#ffffff;stroke-width:5.66312;stroke-miterlimit:10;stroke-dasharray:none;stroke-opacity:1"
                             data-fill-palette-color="accent"
                             id="path34" />
                        </g>
                        <g
                           transform="translate(39.040409,34.510124)"
                           id="g63"
                           style="fill:#000000;fill-opacity:1">
                          <svg
                             viewBox="0 0 75.773722 84.834292"
                             height="84.83429"
                             width="75.77372"
                             version="1.1"
                             id="svg61"
                             style="fill:#000000;fill-opacity:1">
                            <g
                               id="g59"
                               style="fill:#000000;fill-opacity:1">
                              <svg
                                 version="1.1"
                                 x="0"
                                 y="0"
                                 viewBox="9.2726145 5.0015149 71.454391 79.998482"
                                 enable-background="new 0 0 90 90"
                                 xml:space="preserve"
                                 height="84.83429"
                                 width="75.77372"
                                 class="icon-c-0"
                                 data-fill-palette-color="quaternary"
                                 id="c-0"
                                 style="fill:#000000;fill-opacity:1"><g
                                   fill="#62bfd0"
                                   data-fill-palette-color="quaternary"
                                   id="g56"
                                   style="fill:#000000;fill-opacity:1"><g
                                   fill="#62bfd0"
                                   data-fill-palette-color="quaternary"
                                   id="g40"
                                   style="fill:#000000;fill-opacity:1"><path
                                   d="M 37.225,70.993 C 28.27,70.993 21.262,68.264 16.392,62.885 8.07,53.688 9.313,40.196 9.37,39.626 c 0.155,-1.547 1.456,-2.724 3.01,-2.724 h 17.35 l -5.063,-5.063 c -0.653,-0.653 -0.972,-1.568 -0.866,-2.485 0.106,-0.917 0.624,-1.736 1.408,-2.223 L 37.417,19.538 22.453,10.626 C 21.017,9.771 20.547,7.914 21.402,6.479 22.257,5.044 24.113,4.573 25.549,5.428 l 19.234,11.455 c 0.907,0.541 1.467,1.515 1.477,2.57 0.011,1.056 -0.531,2.041 -1.427,2.598 l -13.192,8.205 7.533,7.533 c 0.865,0.865 1.124,2.167 0.656,3.297 -0.468,1.13 -1.572,1.868 -2.795,1.868 h -21.69 c 0.115,3.826 0.997,10.88 5.56,15.9 3.673,4.041 9.164,6.09 16.321,6.09 1.671,0 3.025,1.354 3.025,3.025 0,1.671 -1.355,3.024 -3.026,3.024 z"
                                   fill="#62bfd0"
                                   data-fill-palette-color="quaternary"
                                   id="path38"
                                   style="fill:#000000;fill-opacity:1" /></g><g
                                   fill="#62bfd0"
                                   data-fill-palette-color="quaternary"
                                   id="g54"
                                   style="fill:#000000;fill-opacity:1"><g
                                   fill="#62bfd0"
                                   data-fill-palette-color="quaternary"
                                   id="g44"
                                   style="fill:#000000;fill-opacity:1"><path
                                   d="m 49.971,68.876 c -0.774,0 -1.548,-0.295 -2.139,-0.886 -1.183,-1.182 -1.183,-3.097 -10e-4,-4.278 5.383,-5.383 5.383,-14.142 10e-4,-19.523 -1.183,-1.181 -1.183,-3.097 0,-4.279 1.181,-1.181 3.097,-1.181 4.277,0 7.742,7.742 7.742,20.338 10e-4,28.081 -0.59,0.59 -1.365,0.885 -2.139,0.885 z"
                                   fill="#62bfd0"
                                   data-fill-palette-color="quaternary"
                                   id="path42"
                                   style="fill:#000000;fill-opacity:1" /></g><g
                                   fill="#62bfd0"
                                   data-fill-palette-color="quaternary"
                                   id="g48"
                                   style="fill:#000000;fill-opacity:1"><path
                                   d="m 58.549,76.242 c -0.774,0 -1.549,-0.295 -2.139,-0.886 -1.183,-1.182 -1.183,-3.097 0,-4.278 4.574,-4.575 7.094,-10.658 7.094,-17.128 0,-6.471 -2.52,-12.554 -7.094,-17.128 -1.183,-1.182 -1.183,-3.098 0,-4.279 1.181,-1.181 3.097,-1.181 4.277,0 5.719,5.718 8.867,13.32 8.867,21.407 0,8.086 -3.148,15.688 -8.867,21.406 -0.589,0.591 -1.364,0.886 -2.138,0.886 z"
                                   fill="#62bfd0"
                                   data-fill-palette-color="quaternary"
                                   id="path46"
                                   style="fill:#000000;fill-opacity:1" /></g><g
                                   fill="#62bfd0"
                                   data-fill-palette-color="quaternary"
                                   id="g52"
                                   style="fill:#000000;fill-opacity:1"><path
                                   d="m 66.094,85 c -0.773,0 -1.549,-0.296 -2.139,-0.887 -1.182,-1.181 -1.182,-3.097 0,-4.278 6.914,-6.914 10.722,-16.107 10.722,-25.885 0,-9.779 -3.807,-18.972 -10.721,-25.886 -1.183,-1.181 -1.183,-3.097 0,-4.278 1.18,-1.181 3.097,-1.181 4.277,0 8.058,8.057 12.495,18.769 12.494,30.164 0,11.394 -4.437,22.106 -12.494,30.163 C 67.643,84.704 66.868,85 66.094,85 Z"
                                   fill="#62bfd0"
                                   data-fill-palette-color="quaternary"
                                   id="path50"
                                   style="fill:#000000;fill-opacity:1" /></g></g></g></svg>
                            </g>
                          </svg>
                        </g>
                      </svg>
                    </g>
                  </svg>
                </g>
                <g
                   id="g72" />
              </svg>
            </g>
          </svg>
        </g>
        <defs
           id="defs82" />
      </svg>
      <rect
         width="347.58865"
         height="247.2"
         fill="none"
         stroke="none"
         visibility="hidden"
         id="rect86"
         x="0"
         y="0" />
    </g>
  </g>
</svg>
